<svg width="600" height="600" viewBox="0 0 600 600" fill="none" xmlns="http://www.w3.org/2000/svg">
<path d="M251.3 330.8C246.7 330.8 242.267 330.267 238 329.2C233.8 328.067 230.467 326.667 228 325L233.2 313.8C235.667 315.333 238.567 316.6 241.9 317.6C245.3 318.533 248.633 319 251.9 319C255.5 319 258.033 318.567 259.5 317.7C261.033 316.833 261.8 315.633 261.8 314.1C261.8 312.833 261.2 311.9 260 311.3C258.867 310.633 257.333 310.133 255.4 309.8C253.467 309.467 251.333 309.133 249 308.8C246.733 308.467 244.433 308.033 242.1 307.5C239.767 306.9 237.633 306.033 235.7 304.9C233.767 303.767 232.2 302.233 231 300.3C229.867 298.367 229.3 295.867 229.3 292.8C229.3 289.4 230.267 286.4 232.2 283.8C234.2 281.2 237.067 279.167 240.8 277.7C244.533 276.167 249 275.4 254.2 275.4C257.867 275.4 261.6 275.8 265.4 276.6C269.2 277.4 272.367 278.567 274.9 280.1L269.7 291.2C267.1 289.667 264.467 288.633 261.8 288.1C259.2 287.5 256.667 287.2 254.2 287.2C250.733 287.2 248.2 287.667 246.6 288.6C245 289.533 244.2 290.733 244.2 292.2C244.2 293.533 244.767 294.533 245.9 295.2C247.1 295.867 248.667 296.4 250.6 296.8C252.533 297.2 254.633 297.567 256.9 297.9C259.233 298.167 261.567 298.6 263.9 299.2C266.233 299.8 268.333 300.667 270.2 301.8C272.133 302.867 273.7 304.367 274.9 306.3C276.1 308.167 276.7 310.633 276.7 313.7C276.7 317.033 275.7 320 273.7 322.6C271.7 325.133 268.8 327.133 265 328.6C261.267 330.067 256.7 330.8 251.3 330.8ZM318.125 330.8C313.592 330.8 309.625 329.8 306.225 327.8C302.825 325.8 300.158 322.767 298.225 318.7C296.358 314.567 295.425 309.367 295.425 303.1C295.425 296.767 296.325 291.567 298.125 287.5C299.925 283.433 302.525 280.4 305.925 278.4C309.325 276.4 313.392 275.4 318.125 275.4C323.192 275.4 327.725 276.567 331.725 278.9C335.792 281.167 338.992 284.367 341.325 288.5C343.725 292.633 344.925 297.5 344.925 303.1C344.925 308.767 343.725 313.667 341.325 317.8C338.992 321.933 335.792 325.133 331.725 327.4C327.725 329.667 323.192 330.8 318.125 330.8ZM286.325 349.4V276.2H301.225V287.2L300.925 303.2L301.925 319.1V349.4H286.325ZM315.425 318C318.025 318 320.325 317.4 322.325 316.2C324.392 315 326.025 313.3 327.225 311.1C328.492 308.833 329.125 306.167 329.125 303.1C329.125 299.967 328.492 297.3 327.225 295.1C326.025 292.9 324.392 291.2 322.325 290C320.325 288.8 318.025 288.2 315.425 288.2C312.825 288.2 310.492 288.8 308.425 290C306.358 291.2 304.725 292.9 303.525 295.1C302.325 297.3 301.725 299.967 301.725 303.1C301.725 306.167 302.325 308.833 303.525 311.1C304.725 313.3 306.358 315 308.425 316.2C310.492 317.4 312.825 318 315.425 318ZM387.168 330.8C382.635 330.8 378.668 329.8 375.268 327.8C371.868 325.8 369.201 322.767 367.268 318.7C365.401 314.567 364.468 309.367 364.468 303.1C364.468 296.767 365.368 291.567 367.168 287.5C368.968 283.433 371.568 280.4 374.968 278.4C378.368 276.4 382.435 275.4 387.168 275.4C392.235 275.4 396.768 276.567 400.768 278.9C404.835 281.167 408.035 284.367 410.368 288.5C412.768 292.633 413.968 297.5 413.968 303.1C413.968 308.767 412.768 313.667 410.368 317.8C408.035 321.933 404.835 325.133 400.768 327.4C396.768 329.667 392.235 330.8 387.168 330.8ZM355.368 349.4V276.2H370.268V287.2L369.968 303.2L370.968 319.1V349.4H355.368ZM384.468 318C387.068 318 389.368 317.4 391.368 316.2C393.435 315 395.068 313.3 396.268 311.1C397.535 308.833 398.168 306.167 398.168 303.1C398.168 299.967 397.535 297.3 396.268 295.1C395.068 292.9 393.435 291.2 391.368 290C389.368 288.8 387.068 288.2 384.468 288.2C381.868 288.2 379.535 288.8 377.468 290C375.401 291.2 373.768 292.9 372.568 295.1C371.368 297.3 370.768 299.967 370.768 303.1C370.768 306.167 371.368 308.833 372.568 311.1C373.768 313.3 375.401 315 377.468 316.2C379.535 317.4 381.868 318 384.468 318ZM456.532 330V319.5L455.532 317.2V298.4C455.532 295.067 454.499 292.467 452.432 290.6C450.432 288.733 447.332 287.8 443.132 287.8C440.265 287.8 437.432 288.267 434.632 289.2C431.899 290.067 429.565 291.267 427.632 292.8L422.032 281.9C424.965 279.833 428.499 278.233 432.632 277.1C436.765 275.967 440.965 275.4 445.232 275.4C453.432 275.4 459.799 277.333 464.332 281.2C468.865 285.067 471.132 291.1 471.132 299.3V330H456.532ZM440.132 330.8C435.932 330.8 432.332 330.1 429.332 328.7C426.332 327.233 424.032 325.267 422.432 322.8C420.832 320.333 420.032 317.567 420.032 314.5C420.032 311.3 420.799 308.5 422.332 306.1C423.932 303.7 426.432 301.833 429.832 300.5C433.232 299.1 437.665 298.4 443.132 298.4H457.432V307.5H444.832C441.165 307.5 438.632 308.1 437.232 309.3C435.899 310.5 435.232 312 435.232 313.8C435.232 315.8 435.999 317.4 437.532 318.6C439.132 319.733 441.299 320.3 444.032 320.3C446.632 320.3 448.965 319.7 451.032 318.5C453.099 317.233 454.599 315.4 455.532 313L457.932 320.2C456.799 323.667 454.732 326.3 451.732 328.1C448.732 329.9 444.865 330.8 440.132 330.8ZM491.074 350.2C488.274 350.2 485.508 349.767 482.774 348.9C480.041 348.033 477.808 346.833 476.074 345.3L481.774 334.2C482.974 335.267 484.341 336.1 485.874 336.7C487.474 337.3 489.041 337.6 490.574 337.6C492.774 337.6 494.508 337.067 495.774 336C497.108 335 498.308 333.3 499.374 330.9L502.174 324.3L503.374 322.6L522.674 276.2H537.674L513.374 333.3C511.641 337.633 509.641 341.033 507.374 343.5C505.174 345.967 502.708 347.7 499.974 348.7C497.308 349.7 494.341 350.2 491.074 350.2ZM500.274 332.1L476.274 276.2H492.374L510.974 321.2L500.274 332.1Z" fill="black"/>
<ellipse cx="122" cy="299.679" rx="80" ry="79.679" fill="#413EEB"/>
<path d="M89.0601 324.664C88.9699 307.336 93.4211 290.694 101.435 278.399C109.448 266.105 120.367 259.165 131.79 259.106C143.213 259.047 154.204 265.874 162.345 278.085C170.486 290.296 175.11 306.891 175.2 324.219L132.13 324.442L89.0601 324.664Z" fill="#FFF9F9"/>
</svg>
